<?xml version="1.0" standalone="no"?>
<!DOCTYPE svg PUBLIC "-//W3C//DTD SVG 20010904//EN"
 "http://www.w3.org/TR/2001/REC-SVG-20010904/DTD/svg10.dtd">
<svg version="1.0" xmlns="http://www.w3.org/2000/svg"
 width="512.000000pt" height="512.000000pt" viewBox="0 0 512.000000 512.000000"
 preserveAspectRatio="xMidYMid meet">
<metadata>
Created by potrace 1.14, written by Peter Selinger 2001-2017
</metadata>
<g transform="translate(0.000000,512.000000) scale(0.100000,-0.100000)"
fill="#000000" stroke="none">
<path d="M0 2560 l0 -2560 2560 0 2560 0 0 2560 0 2560 -2560 0 -2560 0 0
-2560z m2937 1745 c526 -69 968 -348 1203 -759 49 -86 116 -233 109 -239 -8
-7 -961 -327 -973 -327 -7 0 -23 19 -36 43 -77 137 -277 268 -461 303 -99 19
-243 14 -329 -12 -99 -29 -210 -94 -281 -164 -151 -148 -219 -326 -219 -573 0
-279 83 -472 265 -617 271 -216 684 -198 924 39 37 36 84 94 105 129 21 35 43
62 50 59 6 -2 224 -75 485 -163 260 -87 476 -164 478 -171 8 -20 -92 -218
-164 -328 -83 -126 -272 -316 -395 -398 -194 -129 -406 -219 -633 -267 -125
-27 -451 -38 -601 -21 -573 66 -1015 322 -1306 758 -283 422 -357 1028 -191
1558 33 107 119 285 185 387 281 431 756 708 1313 767 133 14 347 12 472 -4z"/>
</g>
</svg>
